# xmcd
#
# Track frame offsets: 
#        150
#        20154
#        37221
#        59375
#        81584
#        103873
#        128640
#        145769
#        165114
#        185893
#        206634
#        222686
#        242680
#        266638
#
# Disc length: 3872 seconds
#
# Revision: 0
# Processed by: cddbd v1.5.2PL0 Copyright (c) Steve Scherf et al.
# Submitted via: ExactAudioCopy v1.0b1
#
DISCID=db0f1e0e
DTITLE=Tohpati - The Master Piece Of Rinto Harahap
DYEAR=2011
DGENRE=Pop
TTITLE0=Benci Tapi Rindu - Ello
TTITLE1=Tangan Tak Sampai - Maia
TTITLE2=Jangan Sakiti Hatinya - Andy Rif
TTITLE3=Bila Kau Seorang Diri - Astrid
TTITLE4=Sudah Ku Bilang - Rio Febrian
TTITLE5=Dingin - Achi Harahap
TTITLE6=Hey.. Hey.. Hey.. - The Changchuters
TTITLE7=Kau Tercipta Untukku - Pingkan Mambo
TTITLE8=Aku Jatuh Cinta - Pasto
TTITLE9=Biarlah Sendiri - Terry
TTITLE10=Seindah Rembulan - Yovie and Nuno
TTITLE11=Aku Begini Engkau Begitu - Ello and Achi Harahap
TTITLE12=Katakan Sejujurnya - Nindy
TTITLE13=Ayah - All Artist
EXTD=
EXTT0=
EXTT1=
EXTT2=
EXTT3=
EXTT4=
EXTT5=
EXTT6=
EXTT7=
EXTT8=
EXTT9=
EXTT10=
EXTT11=
EXTT12=
EXTT13=
PLAYORDER=
